<?xml version="1.0" encoding="utf-8"?>
<!-- Generator: Adobe Illustrator 27.1.0, SVG Export Plug-In . SVG Version: 6.00 Build 0)  -->
<svg version="1.1" id="Layer_1" xmlns="http://www.w3.org/2000/svg" xmlns:xlink="http://www.w3.org/1999/xlink" x="0px" y="0px"
	 viewBox="0 0 600.3 800" style="enable-background:new 0 0 600.3 800;" xml:space="preserve">
<style type="text/css">
	.st0{fill:#FFFFFF;}
</style>
<path class="st0" d="M0.3,300c0-54.4,13.3-104.5,40-150.4s63.2-82.1,109.6-108.8S246.4,0.5,300.3,0s104,13.1,150.4,40.8
	s82.9,64,109.6,108.8c26.7,44.8,40,94.9,40,150.4c0,22.9-5.6,49.6-16.8,80c-11.2,30.4-25.3,61.1-42.4,92
	c-17.1,30.9-36.5,62.4-58.4,94.4c-21.9,32-43.2,61.9-64,89.6c-20.8,27.7-40.3,52.3-58.4,73.6c-18.1,21.3-32.5,38.7-43.2,52
	L300.3,800c-4.3-4.3-9.9-10.7-16.8-19.2s-21.1-25.3-42.4-50.4c-21.3-25.1-41.1-50.1-59.2-75.2c-18.1-25.1-39.2-54.4-63.2-88
	s-43.7-65.6-59.2-96c-15.5-30.4-29.6-60.5-42.4-90.4C4.3,350.9-1.3,324,0.3,300L0.3,300z M100.3,300c0,55.5,19.5,102.7,58.4,141.6
	c38.9,38.9,86.1,58.4,141.6,58.4s102.7-19.5,141.6-58.4c38.9-38.9,58.4-86.1,58.4-141.6s-19.5-102.4-58.4-140.8
	c-38.9-38.4-86.1-58.1-141.6-59.2s-102.7,18.7-141.6,59.2S100.3,246.7,100.3,300z"/>
</svg>
